<svg width="192" height="25" viewBox="0 0 192 25" fill="none" xmlns="http://www.w3.org/2000/svg">
<path d="M191.5 12.5001L171.5 0.953116V24.0471L191.5 12.5001ZM0 14.5001H4.7875V10.5001H0V14.5001ZM14.3625 14.5001H23.9375V10.5001H14.3625V14.5001ZM33.5125 14.5001H43.0875V10.5001H33.5125V14.5001ZM52.6625 14.5001H62.2375V10.5001H52.6625V14.5001ZM71.8125 14.5001H81.3875V10.5001H71.8125V14.5001ZM90.9625 14.5001H100.537V10.5001H90.9625V14.5001ZM110.112 14.5001H119.687V10.5001H110.112V14.5001ZM129.262 14.5001H138.837V10.5001H129.262V14.5001ZM148.412 14.5001H157.987V10.5001H148.412V14.5001ZM167.562 14.5001H177.137V10.5001H167.562V14.5001Z" fill="#4E4775"/>
</svg>
