<svg width="28" height="44" viewBox="0 0 28 44" fill="none" xmlns="http://www.w3.org/2000/svg">
<g clip-path="url(#clip0_1_159)">
<rect width="26.6755" height="43.3115" transform="translate(0.375 0.20752)" fill="white" fill-opacity="0.01"/>
<path fill-rule="evenodd" clip-rule="evenodd" d="M11.6787 0.227971C11.5504 0.234492 11.4453 0.25278 11.4453 0.26867C11.4453 0.284484 11.3673 0.297451 11.2719 0.297451C11.1741 0.297451 11.0985 0.310492 11.0985 0.327431C11.0985 0.344071 11.0274 0.357412 10.9385 0.357412C10.8496 0.357412 10.7784 0.370753 10.7784 0.387392C10.7784 0.403882 10.7244 0.417373 10.6584 0.417373C10.5924 0.417373 10.5384 0.430864 10.5384 0.447353C10.5384 0.463843 10.4873 0.477484 10.425 0.477634C10.3626 0.477859 10.2527 0.498095 10.1806 0.522604C10.1086 0.547188 10.0096 0.567275 9.96057 0.567275C9.91155 0.567275 9.87147 0.580767 9.87147 0.597256C9.87147 0.613745 9.83019 0.627236 9.77971 0.627236C9.72923 0.627236 9.68048 0.640728 9.67141 0.657217C9.66234 0.673706 9.61359 0.687197 9.5631 0.687197C9.51262 0.687197 9.47134 0.700689 9.47134 0.717178C9.47134 0.733667 9.43533 0.747158 9.39131 0.747158C9.3473 0.747158 9.31129 0.76065 9.31129 0.777139C9.31129 0.793628 9.27528 0.807119 9.23126 0.807119C9.18725 0.807119 9.15124 0.820611 9.15124 0.8371C9.15124 0.853589 9.12196 0.86708 9.08615 0.86708C9.05033 0.86708 9.01359 0.880572 9.00452 0.897061C8.99545 0.91355 8.9587 0.927042 8.92289 0.927042C8.88708 0.927042 8.8578 0.940533 8.8578 0.957022C8.8578 0.973511 8.82179 0.987002 8.77778 0.987002C8.73376 0.987002 8.69775 1.00049 8.69775 1.01698C8.69775 1.03347 8.66174 1.04696 8.61773 1.04696C8.57371 1.04696 8.5377 1.05828 8.5377 1.07215C8.5377 1.08594 8.45967 1.12236 8.36431 1.15302C8.26894 1.18367 8.19092 1.21958 8.19092 1.23277C8.19092 1.24603 8.16804 1.25683 8.1401 1.25683C8.08568 1.25683 7.86334 1.37682 7.8486 1.41422C7.84367 1.42659 7.81666 1.43671 7.78858 1.43671C7.76044 1.43671 7.73743 1.4502 7.73743 1.46669C7.73743 1.48318 7.70142 1.49667 7.65741 1.49667C7.61339 1.49667 7.57738 1.51016 7.57738 1.52665C7.57738 1.54314 7.55337 1.55663 7.52403 1.55663C7.49469 1.55663 7.47068 1.56758 7.47068 1.58099C7.47068 1.59441 7.42867 1.62394 7.37732 1.64657C7.32596 1.66921 7.28395 1.69874 7.28395 1.71216C7.28395 1.72557 7.26635 1.73652 7.24487 1.73652C7.19065 1.73652 7.0172 1.83215 7.0172 1.86198C7.0172 1.8754 6.99319 1.88642 6.96385 1.88642C6.9345 1.88642 6.91049 1.89991 6.91049 1.9164C6.91049 1.93289 6.88649 1.94638 6.85714 1.94638C6.8278 1.94638 6.80379 1.95987 6.80379 1.97636C6.80379 1.99285 6.78579 2.00634 6.76378 2.00634C6.74177 2.00634 6.72377 2.01983 6.72377 2.03632C6.72377 2.05281 6.70243 2.0663 6.67628 2.0663C6.65021 2.0663 6.61153 2.09328 6.59039 2.12626C6.56925 2.15924 6.53057 2.18622 6.50449 2.18622C6.47835 2.18622 6.45701 2.19971 6.45701 2.2162C6.45701 2.23269 6.4374 2.24618 6.41346 2.24618C6.38952 2.24618 6.35051 2.27122 6.32677 2.30187C6.30303 2.33245 6.25661 2.36708 6.2236 2.37885C6.19059 2.39054 6.16358 2.41273 6.16358 2.42809C6.16358 2.44346 6.14224 2.45605 6.1161 2.45605C6.09002 2.45605 6.05134 2.48303 6.0302 2.51601C6.00906 2.54899 5.97478 2.57597 5.95411 2.57597C5.93337 2.57597 5.89703 2.59965 5.87328 2.62866C5.84954 2.65759 5.79733 2.70024 5.75725 2.7234C5.7171 2.74648 5.67729 2.79025 5.66875 2.82061C5.66015 2.85097 5.63261 2.87577 5.60746 2.87577C5.58239 2.87577 5.54451 2.90276 5.52337 2.93574C5.50223 2.96871 5.46608 2.9957 5.44301 2.9957C5.41994 2.9957 5.35658 3.04292 5.3021 3.10063C5.24768 3.15834 5.19346 3.20556 5.18159 3.20556C5.16979 3.20556 5.11877 3.25923 5.06829 3.32481C5.0178 3.39039 4.96112 3.44435 4.94231 3.44473C4.92344 3.4451 4.86662 3.48925 4.81607 3.54284C4.64748 3.7213 4.59179 3.77519 4.57579 3.77519C4.55605 3.77519 3.54938 4.90568 3.54938 4.92787C3.54938 4.9484 3.45409 5.07522 3.34265 5.20286C3.29497 5.2575 3.25595 5.31769 3.25595 5.33657C3.25595 5.35554 3.20794 5.41827 3.14925 5.47613C3.09056 5.53392 3.04255 5.59373 3.04255 5.60895C3.04255 5.62424 3.01554 5.66921 2.98253 5.70886C2.87869 5.83365 2.85582 5.87015 2.85582 5.91093C2.85582 5.93274 2.83181 5.96999 2.80247 5.99375C2.77313 6.01751 2.74912 6.04884 2.74912 6.0633C2.74912 6.07777 2.71311 6.12739 2.66909 6.17363C2.62508 6.21988 2.58907 6.27624 2.58907 6.29895C2.58907 6.32166 2.56506 6.35973 2.53572 6.38349C2.50637 6.40725 2.48236 6.44773 2.48236 6.47344C2.48236 6.49914 2.45836 6.53962 2.42901 6.56338C2.39967 6.58714 2.37566 6.62918 2.37566 6.65677C2.37566 6.68427 2.35766 6.71463 2.33565 6.72415C2.31364 6.73359 2.29564 6.76882 2.29564 6.80225C2.29564 6.83575 2.28363 6.86318 2.26896 6.86318C2.25429 6.86318 2.24228 6.88717 2.24228 6.91655C2.24228 6.94585 2.21828 6.98933 2.18893 7.01309C2.15959 7.03684 2.13558 7.08032 2.13558 7.10962C2.13558 7.139 2.12358 7.16299 2.10891 7.16299C2.09424 7.16299 2.08223 7.18697 2.08223 7.21635C2.08223 7.24566 2.05822 7.28913 2.02888 7.31289C1.99954 7.33665 1.97553 7.37338 1.97553 7.39444C1.97553 7.41557 1.96353 7.43281 1.94885 7.43281C1.93418 7.43281 1.92218 7.45979 1.92218 7.49277C1.92218 7.52575 1.91017 7.55273 1.8955 7.55273C1.88083 7.55273 1.86883 7.57972 1.86883 7.6127C1.86883 7.64567 1.85682 7.67266 1.84215 7.67266C1.82748 7.67266 1.81548 7.6884 1.81548 7.70758C1.81548 7.7635 1.72725 7.97246 1.70364 7.97246C1.69177 7.97246 1.6821 7.9927 1.6821 8.01743C1.6821 8.04217 1.6701 8.0624 1.65542 8.0624C1.64075 8.0624 1.62875 8.10288 1.62875 8.15234C1.62875 8.20181 1.61674 8.24229 1.60207 8.24229C1.5874 8.24229 1.5754 8.26927 1.5754 8.30225C1.5754 8.33523 1.56339 8.36221 1.54872 8.36221C1.53405 8.36221 1.52205 8.38919 1.52205 8.42217C1.52205 8.45515 1.51231 8.48213 1.50037 8.48213C1.48844 8.48213 1.46216 8.52935 1.44202 8.58706C1.42188 8.64477 1.3956 8.69199 1.38367 8.69199C1.37173 8.69199 1.36199 8.73247 1.36199 8.78193C1.36199 8.8314 1.34999 8.87188 1.33532 8.87188C1.32065 8.87188 1.30864 8.89773 1.30864 8.92936C1.30864 8.96092 1.29964 8.99127 1.28864 8.99682C1.26003 9.01106 1.175 9.29385 1.17513 9.37405C1.1752 9.41115 1.16326 9.44151 1.14859 9.44151C1.13392 9.44151 1.12191 9.46849 1.12191 9.50147C1.12191 9.53445 1.10991 9.56143 1.09524 9.56143C1.08057 9.56143 1.06856 9.6019 1.06856 9.65137C1.06856 9.70084 1.05656 9.74131 1.04189 9.74131C1.02722 9.74131 1.01521 9.77504 1.01521 9.81626C1.01521 9.85749 1.00321 9.89121 0.988537 9.89121C0.973865 9.89121 0.961861 9.93169 0.961861 9.98115C0.961861 10.0306 0.949857 10.0711 0.935186 10.0711C0.920514 10.0711 0.90851 10.1116 0.90851 10.161C0.90851 10.2105 0.896507 10.251 0.881835 10.251C0.867163 10.251 0.855159 10.2974 0.855159 10.3541C0.855159 10.4109 0.843156 10.4656 0.828484 10.4758C0.813813 10.486 0.801809 10.5273 0.801809 10.5676C0.801809 10.6078 0.789805 10.6407 0.775133 10.6407C0.760462 10.6407 0.748458 10.6947 0.748458 10.7606C0.748458 10.8266 0.739121 10.8806 0.727717 10.8806C0.704643 10.8806 0.643289 11.2281 0.623149 11.4727C0.616014 11.5593 0.599275 11.6301 0.585937 11.6301C0.572599 11.6301 0.561729 11.6908 0.561729 11.765C0.561729 11.8392 0.549725 11.8999 0.535054 11.8999C0.520249 11.8999 0.508378 11.9799 0.508378 12.0798C0.508378 12.1797 0.496508 12.2597 0.481703 12.2597C0.466698 12.2597 0.455027 12.3438 0.455027 12.4521C0.455027 12.5793 0.443757 12.6487 0.421683 12.6569C0.372867 12.6752 0.372867 16.2813 0.421683 16.2995C0.443757 16.3078 0.455027 16.3772 0.455027 16.5044C0.455027 16.6127 0.466698 16.6968 0.481703 16.6968C0.496508 16.6968 0.508378 16.7768 0.508378 16.8767C0.508378 16.9766 0.520249 17.0566 0.535054 17.0566C0.549725 17.0566 0.561729 17.1308 0.561729 17.2214C0.561729 17.3121 0.572199 17.3863 0.585004 17.3863C0.597808 17.3863 0.61568 17.4504 0.62475 17.5287C0.65636 17.8017 0.708578 18.1014 0.728451 18.1235C0.739455 18.1358 0.748458 18.184 0.748458 18.2308C0.748458 18.2775 0.760462 18.3157 0.775133 18.3157C0.789805 18.3157 0.801809 18.363 0.801809 18.4207C0.801809 18.4784 0.813813 18.5256 0.828484 18.5256C0.843156 18.5256 0.855159 18.5661 0.855159 18.6155C0.855159 18.665 0.867163 18.7055 0.881835 18.7055C0.896507 18.7055 0.90851 18.746 0.90851 18.7954C0.90851 18.8449 0.920514 18.8854 0.935186 18.8854C0.949857 18.8854 0.961861 18.9258 0.961861 18.9753C0.961861 19.0248 0.973865 19.0652 0.988537 19.0652C1.00321 19.0652 1.01521 19.099 1.01521 19.1402C1.01521 19.1814 1.02722 19.2152 1.04189 19.2152C1.05656 19.2152 1.06856 19.2556 1.06856 19.3051C1.06856 19.3546 1.08057 19.395 1.09524 19.395C1.10991 19.395 1.12191 19.4355 1.12191 19.485C1.12191 19.5344 1.13258 19.5749 1.14559 19.5749C1.15859 19.5749 1.1752 19.612 1.18253 19.6574C1.20861 19.8187 1.40407 20.3274 1.44856 20.3494C1.45963 20.3549 1.4687 20.3988 1.4687 20.4468C1.4687 20.4949 1.4807 20.5343 1.49537 20.5343C1.51004 20.5343 1.52205 20.5613 1.52205 20.5943C1.52205 20.6272 1.53405 20.6542 1.54872 20.6542C1.56339 20.6542 1.5754 20.6812 1.5754 20.7142C1.5754 20.7472 1.58513 20.7741 1.59707 20.7741C1.60901 20.7741 1.63528 20.8214 1.65542 20.8791C1.67556 20.9368 1.70184 20.984 1.71378 20.984C1.72571 20.984 1.73545 21.0039 1.73545 21.0281C1.73545 21.0856 1.86943 21.4037 1.89364 21.4037C1.90384 21.4037 1.92871 21.4509 1.94885 21.5087C1.96899 21.5664 1.99527 21.6136 2.00721 21.6136C2.01914 21.6136 2.02888 21.6376 2.02888 21.667C2.02888 21.6963 2.05289 21.7397 2.08223 21.7635C2.11157 21.7873 2.13558 21.8307 2.13558 21.86C2.13558 21.8894 2.14759 21.9134 2.16226 21.9134C2.17693 21.9134 2.18893 21.9354 2.18893 21.9623C2.18893 21.9892 2.21027 22.0331 2.23642 22.0598C2.26249 22.0865 2.30637 22.1656 2.33385 22.2357C2.36126 22.3058 2.39393 22.3631 2.40641 22.3631C2.41881 22.3631 2.42901 22.3813 2.42901 22.4037C2.42901 22.4259 2.46202 22.4835 2.50237 22.5316C2.54272 22.5796 2.59273 22.6559 2.61361 22.7009C2.63441 22.746 2.66142 22.7828 2.67363 22.7828C2.68576 22.7828 2.69577 22.7977 2.69577 22.8158C2.69577 22.8339 2.73178 22.8865 2.77579 22.9327C2.81981 22.979 2.85582 23.0351 2.85582 23.0575C2.85582 23.0799 2.88583 23.1346 2.92251 23.1791C2.95919 23.2235 2.9892 23.2723 2.9892 23.2876C2.9892 23.3028 3.03721 23.3626 3.0959 23.4204C3.15459 23.4782 3.2026 23.5409 3.2026 23.5597C3.2026 23.5785 3.25662 23.6546 3.32264 23.7288C3.38866 23.803 3.44268 23.8766 3.44268 23.8924C3.44268 23.9081 3.83281 24.3607 4.30963 24.898C4.78646 25.4354 5.17659 25.8878 5.17659 25.9032C5.17659 26.0008 7.55971 28.6041 7.62053 28.5729C7.66488 28.5502 7.70569 28.5498 7.75677 28.5716C7.80959 28.5942 7.83247 28.5934 7.83987 28.5685C7.84547 28.5496 7.89088 28.4914 7.94083 28.4392C7.99078 28.3869 8.12003 28.2448 8.22813 28.1233C8.33617 28.0018 8.46061 27.8618 8.50462 27.8124C8.54864 27.7629 8.67468 27.6212 8.78471 27.4976C8.89475 27.3739 9.02079 27.2322 9.06481 27.1828C9.10882 27.1333 9.23493 26.9917 9.34503 26.8681C9.58298 26.601 9.59498 26.5875 9.88594 26.2606C10.0107 26.1204 10.1367 25.9788 10.166 25.9458C10.1954 25.9128 10.3198 25.7729 10.4425 25.635C10.5652 25.4971 10.6896 25.3573 10.719 25.3243C10.7483 25.2913 10.8743 25.1496 10.999 25.0095C11.1238 24.8693 11.2498 24.7277 11.2791 24.6947C11.3085 24.6617 11.4345 24.5201 11.5592 24.3799C11.6839 24.2397 11.81 24.0981 11.8393 24.0651C11.8687 24.0321 11.9931 23.8926 12.1158 23.755C12.3732 23.4665 12.3293 23.5158 12.6497 23.1558C12.7868 23.0015 12.9129 22.8599 12.9298 22.841C12.9466 22.8221 13.0761 22.6765 13.2176 22.5174C13.3592 22.3583 13.4835 22.2177 13.4938 22.205C13.5042 22.1921 13.5412 22.1553 13.5762 22.1231C13.6279 22.0754 13.6365 22.0468 13.6225 21.9685C13.6088 21.8918 13.6184 21.857 13.6702 21.7955C13.7856 21.6583 13.7443 21.5838 13.2649 21.0641C13.2166 21.0118 13.1026 20.8834 13.0114 20.7788C12.9203 20.6742 12.7932 20.5325 12.7291 20.464C12.6649 20.3955 12.5388 20.2538 12.449 20.1492C12.3591 20.0446 12.2331 19.9029 12.1689 19.8344C12.1047 19.7659 11.9786 19.6242 11.8888 19.5196C11.7989 19.415 11.6729 19.2733 11.6087 19.2048C11.5445 19.1363 11.4185 18.9946 11.3286 18.89C11.2387 18.7854 11.1127 18.6437 11.0485 18.5752C10.9843 18.5067 10.8583 18.3651 10.7684 18.2604C10.6785 18.1558 10.5525 18.0141 10.4883 17.9456C10.4241 17.8771 10.2981 17.7355 10.2083 17.6309C10.1184 17.5263 10.0046 17.3982 9.9553 17.3461C9.6646 17.0386 9.55277 16.9069 9.51656 16.8291C9.49415 16.781 9.45087 16.712 9.42026 16.6756C9.38965 16.6392 9.36464 16.5983 9.36464 16.5847C9.36464 16.5712 9.34063 16.5407 9.31129 16.5169C9.28194 16.4931 9.25794 16.4527 9.25794 16.427C9.25794 16.4013 9.23393 16.3608 9.20459 16.337C9.17524 16.3133 9.15124 16.2698 9.15124 16.2405C9.15124 16.2111 9.13923 16.1871 9.12456 16.1871C9.10989 16.1871 9.09788 16.1651 9.09788 16.1382C9.09788 16.1113 9.07581 16.0674 9.0488 16.0407C9.02179 16.0141 8.97804 15.9142 8.9515 15.8189C8.92503 15.7235 8.89308 15.6385 8.88055 15.6298C8.86807 15.6211 8.8578 15.5904 8.8578 15.5617C8.8578 15.4961 8.79785 15.3482 8.77111 15.3479C8.76011 15.3477 8.7511 15.2937 8.7511 15.2277C8.7511 15.1618 8.7391 15.1078 8.72443 15.1078C8.70976 15.1078 8.69775 15.0673 8.69775 15.0179C8.69775 14.9684 8.68575 14.9279 8.67108 14.9279C8.6564 14.9279 8.6444 14.8672 8.6444 14.793C8.6444 14.7188 8.6324 14.6581 8.61773 14.6581C8.60205 14.6581 8.59105 14.5532 8.59105 14.4033C8.59105 14.2534 8.58005 14.1484 8.56437 14.1484C8.54837 14.1484 8.5377 14.0285 8.5377 13.8486C8.5377 13.6688 8.54837 13.5488 8.56437 13.5488C8.57978 13.5488 8.59105 13.4539 8.59105 13.324C8.59105 13.1941 8.60232 13.0991 8.61773 13.0991C8.6324 13.0991 8.6444 13.0384 8.6444 12.9642C8.6444 12.89 8.6564 12.8293 8.67108 12.8293C8.68575 12.8293 8.69775 12.7753 8.69775 12.7094C8.69775 12.6434 8.70976 12.5895 8.72443 12.5895C8.7391 12.5895 8.7511 12.549 8.7511 12.4995C8.7511 12.45 8.76311 12.4096 8.77778 12.4096C8.79245 12.4096 8.80445 12.383 8.80445 12.3505C8.80445 12.3181 8.82846 12.2434 8.8578 12.1847C8.88715 12.126 8.91116 12.0514 8.91116 12.0189C8.91116 11.9865 8.92209 11.9599 8.9355 11.9599C8.9489 11.9599 8.96791 11.9059 8.97784 11.8399C8.98778 11.774 9.00679 11.72 9.02019 11.72C9.0336 11.72 9.04453 11.6998 9.04453 11.6751C9.04453 11.6503 9.05654 11.6301 9.07121 11.6301C9.08588 11.6301 9.09788 11.6061 9.09788 11.5767C9.09788 11.5474 9.12189 11.5039 9.15124 11.4802C9.18058 11.4564 9.20459 11.4159 9.20459 11.3902C9.20459 11.3645 9.22859 11.3241 9.25794 11.3003C9.28728 11.2765 9.31129 11.2385 9.31129 11.2158C9.31129 11.193 9.3473 11.1367 9.39131 11.0904C9.43533 11.0442 9.47134 10.9978 9.47134 10.9872C9.47134 10.9404 10.1297 10.191 10.1708 10.191C10.1851 10.191 10.2305 10.1505 10.2716 10.1011C10.3128 10.0516 10.3629 10.0111 10.3831 10.0111C10.4033 10.0111 10.4372 9.98415 10.4583 9.95117C10.4795 9.9182 10.5182 9.89121 10.5442 9.89121C10.5704 9.89121 10.5917 9.87922 10.5917 9.86446C10.5917 9.84977 10.6217 9.8293 10.6584 9.81896C10.6951 9.80862 10.7251 9.78688 10.7251 9.77069C10.7251 9.75458 10.7491 9.74131 10.7784 9.74131C10.8078 9.74131 10.8318 9.72782 10.8318 9.71133C10.8318 9.69484 10.8558 9.68135 10.8851 9.68135C10.9145 9.68135 10.9385 9.66786 10.9385 9.65137C10.9385 9.63488 10.9625 9.62139 10.9918 9.62139C11.0212 9.62139 11.0452 9.6079 11.0452 9.59141C11.0452 9.57492 11.0752 9.56143 11.1119 9.56143C11.1486 9.56143 11.1786 9.54794 11.1786 9.53145C11.1786 9.51496 11.2026 9.50147 11.2319 9.50147C11.2613 9.50147 11.2853 9.48798 11.2853 9.47149C11.2853 9.455 11.3213 9.44151 11.3653 9.44151C11.4093 9.44151 11.4453 9.42801 11.4453 9.41153C11.4453 9.39504 11.4933 9.38155 11.552 9.38155C11.6107 9.38155 11.6587 9.36805 11.6587 9.35156C11.6587 9.33508 11.7007 9.32158 11.7521 9.32158C11.8034 9.32158 11.8455 9.30809 11.8455 9.2916C11.8455 9.27511 11.9045 9.26162 11.9766 9.26162C12.0517 9.26162 12.1121 9.24686 12.118 9.22715C12.1322 9.17918 13.3729 9.18015 13.3872 9.22819C13.3926 9.24656 13.4501 9.26162 13.5149 9.26162C13.5797 9.26162 13.6327 9.27511 13.6327 9.2916C13.6327 9.30809 13.6807 9.32158 13.7394 9.32158C13.7981 9.32158 13.8461 9.33508 13.8461 9.35156C13.8461 9.36805 13.8821 9.38155 13.9261 9.38155C13.9702 9.38155 14.0062 9.39504 14.0062 9.41153C14.0062 9.42801 14.0362 9.44151 14.0729 9.44151C14.1095 9.44151 14.1395 9.455 14.1395 9.47149C14.1395 9.48798 14.1756 9.50147 14.2196 9.50147C14.2636 9.50147 14.2996 9.51496 14.2996 9.53145C14.2996 9.54794 14.3236 9.56143 14.353 9.56143C14.3823 9.56143 14.4063 9.57492 14.4063 9.59141C14.4063 9.6079 14.4293 9.62139 14.4575 9.62139C14.4855 9.62139 14.5125 9.63203 14.5175 9.645C14.5295 9.67708 14.8157 9.83125 14.8633 9.83125C14.8842 9.83125 14.9187 9.85823 14.9398 9.89121C14.961 9.92419 14.9966 9.95132 15.019 9.95147C15.0415 9.95162 15.0882 9.9921 15.1229 10.0414C15.1576 10.0907 15.1966 10.1311 15.2096 10.1311C15.2226 10.1311 15.2827 10.185 15.3431 10.251C15.4036 10.3169 15.4692 10.3709 15.4889 10.3709C15.5087 10.3709 15.5522 10.4049 15.5858 10.4464C15.6193 10.4879 15.6857 10.5684 15.7334 10.6253C15.7811 10.6821 15.8201 10.741 15.8201 10.756C15.8201 10.7711 15.8651 10.8323 15.9201 10.8922C15.9752 10.952 16.0622 11.0482 16.1135 11.1061C16.1649 11.1639 16.2953 11.3106 16.4035 11.4321C16.5116 11.5535 16.6361 11.6933 16.6801 11.7428C16.7241 11.7923 16.8502 11.9339 16.9602 12.0576C17.0703 12.1813 17.1963 12.3229 17.2403 12.3724C17.2843 12.4219 17.4104 12.5635 17.5204 12.6872C17.6304 12.8109 17.7565 12.9525 17.8005 13.002C17.8445 13.0515 17.9705 13.1931 18.0806 13.3168C18.3163 13.5818 18.3841 13.658 18.6108 13.9125C18.7948 14.1192 18.8997 14.2371 19.1675 14.5382C19.2629 14.6454 19.3936 14.7892 19.4581 14.8578C19.5226 14.9264 19.5805 14.9999 19.5868 15.0211C19.5961 15.0525 19.6135 15.0526 19.6807 15.0213C19.7425 14.9925 19.7771 14.9912 19.8186 15.0162C19.8684 15.0461 19.9121 15.0059 20.2621 14.6064C20.4756 14.3628 20.6589 14.1538 20.6694 14.1421C20.6798 14.1304 21.8258 12.8456 23.2159 11.2869C24.606 9.72827 25.7434 8.43873 25.7434 8.42134C25.7434 8.37832 25.7052 8.32825 25.5082 8.11224C25.4155 8.01061 25.2894 7.8697 25.2281 7.7991C25.1667 7.72842 25.0404 7.58676 24.9473 7.4843C24.8542 7.38177 24.7161 7.22572 24.6405 7.1375C24.5649 7.04921 24.4501 6.92104 24.3854 6.85269C24.3208 6.78426 24.1403 6.58324 23.9843 6.40598C23.8284 6.22872 23.6832 6.08309 23.6617 6.08234C23.6402 6.08152 23.5807 6.02695 23.5293 5.96092C23.478 5.89489 23.361 5.7572 23.2694 5.65497C23.1777 5.55273 23.0517 5.4113 22.9893 5.3407C22.9269 5.27009 22.7996 5.12844 22.7065 5.0259C22.6134 4.92337 22.4754 4.76762 22.3997 4.6797C22.3241 4.59186 22.2108 4.46369 22.1479 4.39489C22.085 4.32616 21.9463 4.17206 21.8398 4.05251C21.7332 3.93296 21.6372 3.83515 21.6264 3.83515C21.6157 3.83515 21.5653 3.7913 21.5146 3.73771C21.2694 3.47898 21.2356 3.4454 21.2206 3.4454C21.2117 3.4454 21.1583 3.39144 21.1019 3.32548C21.0454 3.25952 20.9858 3.20556 20.9693 3.20556C20.9529 3.20556 20.9081 3.17041 20.8699 3.12746C20.8317 3.08451 20.7667 3.03617 20.7255 3.02006C20.6842 3.00387 20.6432 2.96482 20.6343 2.93326C20.6254 2.90163 20.5997 2.87577 20.5773 2.87577C20.5548 2.87577 20.5028 2.8353 20.4616 2.78583C20.4205 2.73637 20.3703 2.69589 20.3501 2.69589C20.3299 2.69589 20.2961 2.66891 20.2749 2.63593C20.2538 2.60295 20.218 2.57597 20.1954 2.57597C20.1728 2.57597 20.1394 2.54899 20.1211 2.51601C20.1027 2.48303 20.0713 2.45605 20.0512 2.45605C20.0311 2.45605 19.9998 2.43581 19.9815 2.41108C19.9632 2.38634 19.9257 2.36611 19.8982 2.36611C19.8706 2.36611 19.8481 2.35261 19.8481 2.33613C19.8481 2.31964 19.8268 2.30614 19.8006 2.30614C19.7745 2.30614 19.7359 2.27916 19.7147 2.24618C19.6936 2.21321 19.6549 2.18622 19.6288 2.18622C19.6027 2.18622 19.5813 2.17273 19.5813 2.15624C19.5813 2.13975 19.566 2.12626 19.5472 2.12626C19.5285 2.12626 19.4958 2.09928 19.4746 2.0663C19.4535 2.03332 19.4148 2.00634 19.3888 2.00634C19.3626 2.00634 19.3413 1.99285 19.3413 1.97636C19.3413 1.95987 19.3173 1.94638 19.2879 1.94638C19.2586 1.94638 19.2346 1.93289 19.2346 1.9164C19.2346 1.89991 19.2106 1.88642 19.1812 1.88642C19.1519 1.88642 19.1279 1.87293 19.1279 1.85644C19.1279 1.83995 19.1039 1.82646 19.0745 1.82646C19.0452 1.82646 19.0212 1.81357 19.0212 1.79783C19.0212 1.78209 18.9792 1.76035 18.9278 1.74956C18.8765 1.73869 18.8344 1.71785 18.8344 1.70316C18.8344 1.68855 18.8104 1.67655 18.7811 1.67655C18.7517 1.67655 18.7277 1.66306 18.7277 1.64657C18.7277 1.63008 18.7037 1.61659 18.6744 1.61659C18.645 1.61659 18.621 1.6031 18.621 1.58661C18.621 1.57012 18.597 1.55663 18.5677 1.55663C18.5383 1.55663 18.5143 1.54314 18.5143 1.52665C18.5143 1.51016 18.4963 1.49667 18.4743 1.49667C18.4523 1.49667 18.4343 1.48318 18.4343 1.46669C18.4343 1.4502 18.4103 1.43671 18.381 1.43671C18.3516 1.43671 18.3276 1.42322 18.3276 1.40673C18.3276 1.39024 18.3036 1.37675 18.2742 1.37675C18.2449 1.37675 18.2209 1.36326 18.2209 1.34677C18.2209 1.33028 18.1849 1.31679 18.1409 1.31679C18.0969 1.31679 18.0608 1.3033 18.0608 1.28681C18.0608 1.27032 18.0368 1.25683 18.0075 1.25683C17.9782 1.25683 17.9541 1.24581 17.9541 1.23232C17.9541 1.20271 17.6926 1.10692 17.6117 1.10692C17.58 1.10692 17.554 1.09343 17.554 1.07694C17.554 1.06045 17.53 1.04696 17.5007 1.04696C17.4713 1.04696 17.4473 1.03347 17.4473 1.01698C17.4473 1.00049 17.418 0.987002 17.3822 0.987002C17.3464 0.987002 17.3097 0.973511 17.3006 0.957022C17.2915 0.940533 17.2548 0.927042 17.219 0.927042C17.1832 0.927042 17.1539 0.91355 17.1539 0.897061C17.1539 0.880572 17.1179 0.86708 17.0739 0.86708C17.0298 0.86708 16.9938 0.853589 16.9938 0.8371C16.9938 0.820611 16.9578 0.807119 16.9138 0.807119C16.8698 0.807119 16.8338 0.793628 16.8338 0.777139C16.8338 0.76065 16.7918 0.747158 16.7404 0.747158C16.6891 0.747158 16.647 0.733667 16.647 0.717178C16.647 0.700689 16.611 0.687197 16.567 0.687197C16.523 0.687197 16.487 0.673706 16.487 0.657217C16.487 0.640728 16.439 0.627236 16.3803 0.627236C16.3216 0.627236 16.2736 0.616743 16.2736 0.603927C16.2736 0.579567 15.9789 0.512111 15.7601 0.486403C15.6904 0.478233 15.6334 0.459346 15.6334 0.44443C15.6334 0.42959 15.5734 0.417373 15.5 0.417373C15.4266 0.417373 15.3666 0.403882 15.3666 0.387392C15.3666 0.370903 15.3013 0.357412 15.2215 0.357412C15.1417 0.357412 15.0689 0.343921 15.0599 0.327431C15.0508 0.310942 14.967 0.297451 14.8738 0.297451C14.766 0.297451 14.7003 0.284409 14.6935 0.261624C14.683 0.226097 12.2501 0.19889 11.6787 0.227971Z" fill="#6A35F5"/>
<path fill-rule="evenodd" clip-rule="evenodd" d="M19.656 15.0404C19.6164 15.0465 19.5768 15.0743 19.5682 15.1022C19.5596 15.13 19.5044 15.2 19.4456 15.2577C19.3868 15.3154 19.2611 15.4503 19.1664 15.5575C19.0717 15.6647 18.9478 15.8046 18.8909 15.8685C18.8341 15.9323 18.7096 16.0723 18.6143 16.1794C18.5189 16.2866 18.3929 16.4283 18.3342 16.4942C18.2755 16.5602 18.1494 16.7019 18.0541 16.809C17.9587 16.9162 17.8308 17.0596 17.7698 17.1277C17.7089 17.1957 17.5844 17.337 17.4932 17.4416C17.4019 17.5463 17.2747 17.6879 17.2106 17.7564C17.1464 17.8249 17.0203 17.9666 16.9305 18.0712C16.8406 18.1758 16.7146 18.3175 16.6504 18.386C16.5862 18.4545 16.4601 18.5962 16.3703 18.7008C16.2804 18.8054 16.1544 18.9471 16.0902 19.0156C16.026 19.0841 15.9 19.2254 15.8101 19.3295C15.7202 19.4336 15.6076 19.5618 15.5597 19.6143C15.5118 19.6669 15.3963 19.7958 15.3029 19.9008C15.2095 20.0059 15.0851 20.1459 15.0264 20.2118C14.9677 20.2778 14.8417 20.4194 14.7463 20.5266C14.6509 20.6338 14.5264 20.7737 14.4696 20.8376C14.3078 21.0193 14.0186 21.3454 13.8864 21.4948C13.8203 21.5696 13.7661 21.6546 13.7661 21.6834C13.7661 21.7123 13.7421 21.765 13.7128 21.8003C13.6387 21.8897 13.6446 22.0161 13.7267 22.0997C13.7637 22.1374 13.8447 22.2256 13.9068 22.2958C14.0887 22.5017 14.346 22.7907 14.4339 22.8877C14.4786 22.9372 14.6044 23.0789 14.7133 23.2025C14.8222 23.3262 14.9508 23.4703 14.9989 23.5229C15.0471 23.5754 15.1612 23.7036 15.2524 23.8077C15.3436 23.9118 15.4696 24.0534 15.5325 24.1224C15.5953 24.1914 15.7214 24.333 15.8126 24.4372C15.9038 24.5414 16.0298 24.683 16.0927 24.752C16.1555 24.8209 16.2816 24.9626 16.3728 25.0668C16.464 25.171 16.5885 25.3119 16.6495 25.3799C16.7104 25.448 16.8383 25.5914 16.9337 25.6985C17.0291 25.8057 17.1551 25.9474 17.2138 26.0133C17.2725 26.0793 17.3965 26.2192 17.4893 26.3243C17.5821 26.4294 17.7062 26.5626 17.7649 26.6203C17.8237 26.678 17.8722 26.746 17.8729 26.7715C17.8736 26.7969 17.9162 26.8677 17.9675 26.9289C18.0189 26.9901 18.0609 27.0507 18.0609 27.0635C18.0609 27.0763 18.0849 27.1062 18.1142 27.13C18.1436 27.1537 18.1676 27.1942 18.1676 27.2199C18.1676 27.2456 18.1916 27.2861 18.2209 27.3098C18.2503 27.3336 18.2743 27.3771 18.2743 27.4064C18.2743 27.4358 18.2863 27.4598 18.301 27.4598C18.3156 27.4598 18.3276 27.4856 18.3276 27.5172C18.3276 27.5488 18.3371 27.5791 18.3487 27.5847C18.3772 27.5982 18.5144 27.9298 18.5144 27.9852C18.5144 28.0095 18.5264 28.0294 18.541 28.0294C18.5557 28.0294 18.5677 28.0623 18.5677 28.1025C18.5677 28.1428 18.5797 28.1841 18.5944 28.1943C18.6091 28.2045 18.6211 28.2458 18.6211 28.286C18.6211 28.3263 18.6331 28.3592 18.6477 28.3592C18.6624 28.3592 18.6744 28.3996 18.6744 28.4491C18.6744 28.4986 18.6864 28.539 18.7011 28.539C18.7158 28.539 18.7278 28.593 18.7278 28.659C18.7278 28.7249 18.7398 28.7789 18.7544 28.7789C18.7691 28.7789 18.7811 28.8396 18.7811 28.9138C18.7811 28.988 18.7931 29.0487 18.8078 29.0487C18.8232 29.0487 18.8345 29.1431 18.8345 29.2718C18.8345 29.3945 18.8465 29.5032 18.8611 29.5134C18.8759 29.5237 18.8878 29.6586 18.8878 29.815C18.8878 29.9837 18.877 30.098 18.8611 30.098C18.8457 30.098 18.8345 30.193 18.8345 30.3229C18.8345 30.4528 18.8232 30.5477 18.8078 30.5477C18.7931 30.5477 18.7811 30.6152 18.7811 30.6976C18.7811 30.7801 18.7691 30.8475 18.7544 30.8475C18.7398 30.8475 18.7278 30.8948 18.7278 30.9525C18.7278 31.0102 18.7158 31.0574 18.7011 31.0574C18.6864 31.0574 18.6744 31.0979 18.6744 31.1473C18.6744 31.1968 18.6624 31.2373 18.6477 31.2373C18.6331 31.2373 18.6211 31.2778 18.6211 31.3272C18.6211 31.3767 18.6091 31.4172 18.5944 31.4172C18.5797 31.4172 18.5677 31.4509 18.5677 31.4921C18.5677 31.5333 18.5557 31.5671 18.541 31.5671C18.5264 31.5671 18.5144 31.5857 18.5144 31.6086C18.5144 31.6315 18.4964 31.6888 18.4745 31.736C18.4526 31.7832 18.4346 31.8455 18.4345 31.8744C18.4344 31.9032 18.4223 31.9268 18.4077 31.9268C18.393 31.9268 18.381 31.9538 18.381 31.9868C18.381 32.0198 18.369 32.0468 18.3543 32.0468C18.3396 32.0468 18.3276 32.064 18.3276 32.0851C18.3276 32.1062 18.3036 32.1429 18.2743 32.1667C18.2449 32.1904 18.2209 32.2309 18.2209 32.2566C18.2209 32.2823 18.1969 32.3228 18.1676 32.3466C18.1382 32.3703 18.1142 32.4108 18.1142 32.4365C18.1142 32.4622 18.0902 32.5027 18.0609 32.5265C18.0315 32.5502 18.0075 32.5857 18.0075 32.6054C18.0075 32.625 17.9295 32.7296 17.8341 32.8379C17.7388 32.9461 17.6607 33.0552 17.6607 33.0804C17.6607 33.1055 17.6419 33.1261 17.6188 33.1261C17.5958 33.1261 17.4993 33.2138 17.4044 33.3209C17.3095 33.4281 17.2169 33.5158 17.1988 33.5158C17.1806 33.5158 17.1484 33.5428 17.1272 33.5758C17.1061 33.6087 17.0718 33.6357 17.0511 33.6357C17.0304 33.6357 16.9941 33.6594 16.9703 33.6884C16.9466 33.7174 16.8942 33.7601 16.8538 33.7834C16.8135 33.8067 16.7805 33.837 16.7805 33.8507C16.7805 33.8643 16.7684 33.8756 16.7536 33.8756C16.7389 33.8756 16.6646 33.9093 16.5886 33.9505C16.5126 33.9917 16.4346 34.0255 16.4153 34.0255C16.3961 34.0255 16.3803 34.039 16.3803 34.0555C16.3803 34.0719 16.3563 34.0854 16.327 34.0854C16.2976 34.0854 16.2736 34.0989 16.2736 34.1154C16.2736 34.1319 16.2436 34.1454 16.2069 34.1454C16.1702 34.1454 16.1402 34.1589 16.1402 34.1754C16.1402 34.1919 16.1042 34.2054 16.0602 34.2054C16.0162 34.2054 15.9802 34.2189 15.9802 34.2353C15.9802 34.2518 15.9442 34.2653 15.9002 34.2653C15.8561 34.2653 15.8201 34.2788 15.8201 34.2953C15.8201 34.3118 15.7781 34.3253 15.7268 34.3253C15.6754 34.3253 15.6334 34.3388 15.6334 34.3553C15.6334 34.3718 15.5734 34.3852 15.5 34.3852C15.4267 34.3852 15.3667 34.3987 15.3667 34.4152C15.3667 34.4325 15.2822 34.4452 15.1666 34.4452C15.051 34.4452 14.9665 34.4579 14.9665 34.4752C14.9665 34.4932 14.8553 34.5052 14.6864 34.5052C14.5175 34.5052 14.4063 34.4932 14.4063 34.4752C14.4063 34.4577 14.3174 34.4452 14.1929 34.4452C14.0684 34.4452 13.9795 34.4327 13.9795 34.4152C13.9795 34.3987 13.9255 34.3852 13.8595 34.3852C13.7935 34.3852 13.7394 34.3718 13.7394 34.3553C13.7394 34.3388 13.7034 34.3253 13.6594 34.3253C13.6154 34.3253 13.5794 34.3118 13.5794 34.2953C13.5794 34.2788 13.5374 34.2653 13.486 34.2653C13.4347 34.2653 13.3927 34.2518 13.3927 34.2353C13.3927 34.2189 13.3567 34.2054 13.3126 34.2054C13.2686 34.2054 13.2326 34.1919 13.2326 34.1754C13.2326 34.1589 13.2086 34.1454 13.1793 34.1454C13.1499 34.1454 13.1259 34.1319 13.1259 34.1154C13.1259 34.0989 13.1019 34.0854 13.0726 34.0854C13.0432 34.0854 13.0192 34.0719 13.0192 34.0555C13.0192 34.039 12.9971 34.0255 12.9699 34.0255C12.9134 34.0255 12.7611 33.9454 12.738 33.9037C12.7296 33.8882 12.6993 33.8756 12.6708 33.8756C12.6424 33.8756 12.6191 33.8621 12.6191 33.8456C12.6191 33.8291 12.5977 33.8156 12.5716 33.8156C12.5455 33.8156 12.5068 33.7886 12.4857 33.7557C12.4646 33.7227 12.4287 33.6957 12.4062 33.6957C12.3836 33.6957 12.3502 33.6687 12.3318 33.6357C12.3135 33.6028 12.2866 33.5758 12.2721 33.5758C12.2576 33.5758 12.1962 33.5218 12.1357 33.4558C12.0752 33.3899 12.0095 33.3359 11.9897 33.3359C11.9699 33.3359 11.9144 33.2886 11.8662 33.2307C11.8181 33.1728 11.7278 33.0653 11.6654 32.9917C11.6031 32.9181 11.5521 32.8478 11.5521 32.8355C11.5521 32.8232 11.4798 32.7317 11.3915 32.6323C11.3032 32.5329 11.1532 32.3638 11.0582 32.2566C10.9632 32.1494 10.8374 32.0078 10.7787 31.9418C10.72 31.8759 10.5941 31.7342 10.4987 31.627C10.4033 31.5199 10.2742 31.3748 10.2118 31.3048C10.1493 31.2347 10.0362 31.1066 9.9604 31.02C9.88457 30.9334 9.75853 30.7922 9.68031 30.706C9.60208 30.62 9.4751 30.4783 9.39808 30.3912C9.32112 30.3042 9.19508 30.1622 9.11799 30.0756C9.04096 29.9891 8.91492 29.8475 8.83789 29.7608C8.76093 29.6743 8.63489 29.5326 8.5578 29.446C8.48078 29.3595 8.35507 29.2179 8.27858 29.1312C8.20202 29.0447 8.07964 28.9131 8.00649 28.8389C7.93339 28.7647 7.86651 28.6818 7.85797 28.6547C7.84103 28.6011 7.68505 28.5605 7.6475 28.5999C7.6347 28.6133 7.60795 28.6173 7.58795 28.6087C7.56734 28.5998 7.50552 28.6494 7.44483 28.7234C7.38608 28.7952 7.31526 28.879 7.28738 28.9098C7.21016 28.995 6.78221 29.4763 6.72993 29.5367C6.70452 29.566 6.58175 29.7038 6.45704 29.8428C6.33233 29.9819 6.20282 30.1265 6.16921 30.1643C6.1356 30.2021 6.00689 30.3476 5.88318 30.4878C5.75948 30.6279 5.63343 30.7696 5.60309 30.8026C5.57275 30.8356 5.44644 30.9772 5.3224 31.1174C5.19836 31.2575 5.08459 31.3857 5.06958 31.4022C5.05458 31.4187 4.93147 31.5567 4.79602 31.709C4.66058 31.8612 4.53454 32.0028 4.51593 32.0238C4.49733 32.0447 4.37128 32.1863 4.23584 32.3385C4.10039 32.4908 3.97435 32.6324 3.95575 32.6533C3.93714 32.6743 3.8079 32.8195 3.66852 32.9762C3.52914 33.1328 3.40256 33.2745 3.38723 33.291C3.37195 33.3074 3.24611 33.4491 3.10767 33.6057C2.96915 33.7624 2.84511 33.9021 2.83198 33.9161C2.81877 33.9302 2.70453 34.0584 2.57796 34.2009C2.2988 34.5156 2.29713 34.5174 2.01397 34.8349C1.68293 35.2061 1.68213 35.2072 1.68213 35.2631C1.68213 35.3158 1.93975 35.6444 1.98109 35.6444C2.00584 35.6444 2.0848 35.7205 2.22284 35.8772C2.27026 35.931 2.39743 36.0744 2.5056 36.1959C2.73948 36.4587 2.80083 36.5276 3.02877 36.7837C3.12421 36.8909 3.25338 37.0348 3.3158 37.1036C3.37829 37.1724 3.49126 37.3005 3.56688 37.3884C3.74248 37.5925 4.05418 37.9229 4.07112 37.9229C4.08332 37.9229 4.28379 38.1342 4.46278 38.3355C4.5068 38.3849 4.63284 38.5266 4.74287 38.6503C4.85291 38.7739 4.97895 38.9156 5.02297 38.9651C5.06698 39.0145 5.19142 39.1545 5.29946 39.276C5.40756 39.3975 5.53514 39.5396 5.58302 39.5918C5.6309 39.644 5.71579 39.7418 5.77168 39.8092C5.8275 39.8765 5.88492 39.9316 5.89926 39.9316C5.91359 39.9316 5.96674 39.9755 6.01729 40.0291C6.18682 40.2085 6.24164 40.2614 6.25811 40.2614C6.26711 40.2614 6.32059 40.3154 6.37701 40.3813C6.43343 40.4473 6.49365 40.5013 6.51092 40.5013C6.5282 40.5013 6.57595 40.5417 6.61709 40.5912C6.65824 40.6407 6.70939 40.6811 6.73073 40.6811C6.75214 40.6811 6.79222 40.7149 6.81976 40.7561C6.8473 40.7973 6.88832 40.831 6.91099 40.831C6.9336 40.831 6.96941 40.858 6.99055 40.891C7.01169 40.924 7.0477 40.951 7.07058 40.951C7.09345 40.951 7.12946 40.978 7.1506 41.0109C7.17174 41.0439 7.20775 41.0709 7.23063 41.0709C7.2535 41.0709 7.28952 41.0979 7.31066 41.1308C7.3318 41.1638 7.36447 41.1908 7.38321 41.1908C7.40202 41.1908 7.41736 41.2033 7.41736 41.2186C7.41736 41.2339 7.46537 41.2703 7.52406 41.2993C7.58275 41.3284 7.63076 41.3631 7.63076 41.3765C7.63076 41.3898 7.65477 41.4007 7.68411 41.4007C7.71346 41.4007 7.73746 41.4142 7.73746 41.4307C7.73746 41.4471 7.7588 41.4606 7.78495 41.4606C7.81102 41.4606 7.8497 41.4876 7.87084 41.5206C7.89198 41.5536 7.92466 41.5806 7.9434 41.5806C7.9622 41.5806 7.97754 41.594 7.97754 41.6105C7.97754 41.627 8.00155 41.6405 8.03089 41.6405C8.06024 41.6405 8.08424 41.654 8.08424 41.6705C8.08424 41.687 8.10558 41.7005 8.13173 41.7005C8.1578 41.7005 8.19648 41.7275 8.21762 41.7604C8.23876 41.7934 8.27744 41.8204 8.30352 41.8204C8.32966 41.8204 8.351 41.8339 8.351 41.8504C8.351 41.8669 8.37501 41.8804 8.40435 41.8804C8.43369 41.8804 8.4577 41.8933 8.4577 41.909C8.4577 41.9247 8.49971 41.9465 8.55107 41.9573C8.60242 41.9681 8.64443 41.989 8.64443 42.0037C8.64443 42.0183 8.66844 42.0303 8.69778 42.0303C8.72712 42.0303 8.75113 42.0438 8.75113 42.0602C8.75113 42.0767 8.77514 42.0902 8.80448 42.0902C8.83383 42.0902 8.85783 42.1037 8.85783 42.1202C8.85783 42.1367 8.88184 42.1502 8.91118 42.1502C8.94053 42.1502 8.96454 42.1637 8.96454 42.1802C8.96454 42.1967 8.99455 42.2101 9.03122 42.2101C9.0679 42.2101 9.09791 42.2236 9.09791 42.2401C9.09791 42.2566 9.12192 42.2701 9.15126 42.2701C9.18061 42.2701 9.20461 42.2836 9.20461 42.3001C9.20461 42.3166 9.22862 42.3301 9.25797 42.3301C9.28731 42.3301 9.31132 42.3436 9.31132 42.3601C9.31132 42.3765 9.34733 42.39 9.39134 42.39C9.43536 42.39 9.47144 42.4001 9.47157 42.4125C9.47184 42.4386 9.60035 42.51 9.64703 42.51C9.66443 42.51 9.71305 42.5301 9.75506 42.5548C9.79708 42.5794 9.8645 42.5996 9.90485 42.5997C9.94519 42.5998 9.9782 42.6134 9.9782 42.6299C9.9782 42.6464 10.0082 42.6599 10.0449 42.6599C10.0816 42.6599 10.1116 42.6733 10.1116 42.6898C10.1116 42.7063 10.1476 42.7198 10.1916 42.7198C10.2356 42.7198 10.2716 42.7333 10.2716 42.7498C10.2716 42.7663 10.3076 42.7798 10.3517 42.7798C10.3957 42.7798 10.4317 42.7933 10.4317 42.8098C10.4317 42.8262 10.4677 42.8397 10.5117 42.8397C10.5557 42.8397 10.5917 42.8532 10.5917 42.8697C10.5917 42.8862 10.621 42.8997 10.6568 42.8997C10.6926 42.8997 10.7294 42.9132 10.7385 42.9297C10.7475 42.9462 10.7963 42.9597 10.8468 42.9597C10.8972 42.9597 10.9385 42.9731 10.9385 42.9896C10.9385 43.0061 10.9745 43.0196 11.0185 43.0196C11.0626 43.0196 11.0986 43.0331 11.0986 43.0496C11.0986 43.0661 11.1399 43.0796 11.1903 43.0796C11.2408 43.0796 11.2896 43.0931 11.2986 43.1096C11.3077 43.1261 11.3685 43.1395 11.4336 43.1395C11.4988 43.1395 11.5521 43.1518 11.5521 43.1668C11.5521 43.1818 11.6541 43.2037 11.7788 43.2153C11.9035 43.227 12.0055 43.2484 12.0055 43.263C12.0055 43.2775 12.0776 43.2894 12.1656 43.2894C12.2545 43.2894 12.3256 43.3028 12.3256 43.3194C12.3256 43.3364 12.4012 43.3494 12.499 43.3494C12.5969 43.3494 12.6724 43.3624 12.6724 43.3794C12.6724 43.397 12.7651 43.4094 12.897 43.4094C13.0419 43.4094 13.125 43.4215 13.1316 43.4437C13.1464 43.4934 15.5594 43.494 15.5741 43.4443C15.5809 43.4214 15.6617 43.4094 15.809 43.4094C15.9409 43.4094 16.0335 43.397 16.0335 43.3794C16.0335 43.3624 16.1091 43.3494 16.2069 43.3494C16.3048 43.3494 16.3803 43.3364 16.3803 43.3194C16.3803 43.3028 16.4515 43.2894 16.5404 43.2894C16.6284 43.2894 16.7004 43.2783 16.7004 43.2647C16.7004 43.2511 16.8115 43.2239 16.9472 43.2043C17.3328 43.1485 17.394 43.1351 17.394 43.1064C17.394 43.0916 17.442 43.0796 17.5007 43.0796C17.5594 43.0796 17.6074 43.0661 17.6074 43.0496C17.6074 43.0331 17.6487 43.0196 17.6992 43.0196C17.7496 43.0196 17.7984 43.0061 17.8075 42.9896C17.8165 42.9731 17.8533 42.9597 17.8891 42.9597C17.9249 42.9597 17.9542 42.9462 17.9542 42.9297C17.9542 42.9132 18.0022 42.8997 18.0609 42.8997C18.1196 42.8997 18.1676 42.8862 18.1676 42.8697C18.1676 42.8532 18.2036 42.8397 18.2476 42.8397C18.2916 42.8397 18.3276 42.8262 18.3276 42.8098C18.3276 42.7933 18.3576 42.7798 18.3943 42.7798C18.431 42.7798 18.461 42.7663 18.461 42.7498C18.461 42.7333 18.497 42.7198 18.541 42.7198C18.585 42.7198 18.6211 42.7063 18.6211 42.6898C18.6211 42.6733 18.6451 42.6599 18.6744 42.6599C18.7038 42.6599 18.7278 42.6481 18.7278 42.6338C18.7278 42.6194 18.7873 42.5988 18.8601 42.5879C18.9328 42.577 18.9995 42.5551 19.0083 42.539C19.0171 42.5231 19.0477 42.51 19.0761 42.51C19.1046 42.51 19.1279 42.4965 19.1279 42.48C19.1279 42.4635 19.1572 42.45 19.193 42.45C19.2288 42.45 19.2655 42.4365 19.2746 42.42C19.2837 42.4035 19.3144 42.39 19.3429 42.39C19.3714 42.39 19.3946 42.3765 19.3946 42.3601C19.3946 42.3436 19.4187 42.3301 19.448 42.3301C19.4773 42.3301 19.5013 42.3166 19.5013 42.3001C19.5013 42.2836 19.5314 42.2701 19.568 42.2701C19.6047 42.2701 19.6347 42.2566 19.6347 42.2401C19.6347 42.2236 19.6587 42.2101 19.6881 42.2101C19.7174 42.2101 19.7414 42.1967 19.7414 42.1802C19.7414 42.1637 19.7654 42.1502 19.7948 42.1502C19.8241 42.1502 19.8481 42.1367 19.8481 42.1202C19.8481 42.1037 19.8721 42.0902 19.9015 42.0902C19.9308 42.0902 19.9548 42.0767 19.9548 42.0602C19.9548 42.0438 19.9788 42.0303 20.0082 42.0303C20.0375 42.0303 20.0615 42.0168 20.0615 42.0003C20.0615 41.9838 20.0758 41.9703 20.0933 41.9703C20.144 41.9703 20.6217 41.696 20.6217 41.6669C20.6217 41.6524 20.6397 41.6405 20.6617 41.6405C20.6837 41.6405 20.7017 41.627 20.7017 41.6105C20.7017 41.594 20.7231 41.5806 20.7492 41.5806C20.7753 41.5806 20.814 41.5536 20.8351 41.5206C20.8563 41.4876 20.8949 41.4606 20.921 41.4606C20.9472 41.4606 20.9685 41.4471 20.9685 41.4307C20.9685 41.4142 20.9925 41.4007 21.0219 41.4007C21.0512 41.4007 21.0752 41.3881 21.0752 41.3727C21.0752 41.3574 21.1022 41.3352 21.1352 41.3235C21.1682 41.3117 21.2146 41.2771 21.2384 41.2465C21.2621 41.2158 21.3011 41.1908 21.3251 41.1908C21.349 41.1908 21.3686 41.1773 21.3686 41.1608C21.3686 41.1443 21.3878 41.1308 21.4113 41.1308C21.4347 41.1308 21.4875 41.0904 21.5287 41.0409C21.5698 40.9914 21.62 40.951 21.6402 40.951C21.6604 40.951 21.6943 40.924 21.7154 40.891C21.7366 40.858 21.7638 40.831 21.7758 40.831C21.788 40.831 21.8279 40.7973 21.8645 40.7561C21.9012 40.7149 21.9469 40.6811 21.9661 40.6811C21.9852 40.6811 22.0386 40.6407 22.0847 40.5912C22.1308 40.5417 22.1791 40.5013 22.1921 40.5013C22.2052 40.5013 22.2579 40.4473 22.3093 40.3813C22.3608 40.3154 22.4167 40.2614 22.4336 40.2614C22.4637 40.2614 22.5035 40.2251 22.6887 40.0291C22.7392 39.9755 22.7872 39.9316 22.7953 39.9316C22.8093 39.9316 23.0913 39.6303 23.3259 39.3645C23.3864 39.2959 23.547 39.1151 23.6827 38.9629C23.8184 38.8106 23.9295 38.6756 23.9295 38.6629C23.9295 38.6342 23.966 38.5844 24.1095 38.4166C24.1719 38.3439 24.2229 38.2761 24.2229 38.2661C24.2229 38.2562 24.2709 38.1962 24.3296 38.1328C24.3883 38.0694 24.4363 38.0024 24.4363 37.9839C24.4363 37.9654 24.4663 37.9165 24.503 37.8753C24.5397 37.834 24.5698 37.7773 24.57 37.7492C24.5701 37.7211 24.6061 37.6662 24.65 37.6273C24.6939 37.5883 24.7297 37.5407 24.7297 37.5214C24.7297 37.5022 24.7538 37.467 24.7831 37.4432C24.8124 37.4195 24.8364 37.379 24.8364 37.3533C24.8364 37.3276 24.8605 37.2871 24.8898 37.2634C24.9191 37.2396 24.9431 37.1991 24.9431 37.1734C24.9431 37.1477 24.9672 37.1072 24.9965 37.0835C25.0258 37.0597 25.0498 37.0246 25.0498 37.0056C25.0498 36.9865 25.0679 36.9541 25.0899 36.9336C25.1119 36.913 25.1299 36.8739 25.1299 36.8466C25.1299 36.8193 25.1539 36.7775 25.1832 36.7537C25.2126 36.7299 25.2366 36.6865 25.2366 36.6572C25.2366 36.6278 25.2486 36.6038 25.2633 36.6038C25.2779 36.6038 25.2899 36.5818 25.2899 36.5549C25.2899 36.5279 25.3119 36.4841 25.3386 36.4574C25.3654 36.4307 25.4044 36.3651 25.4252 36.3115C25.446 36.2579 25.4721 36.2141 25.4832 36.2141C25.4943 36.2141 25.5033 36.1871 25.5033 36.1541C25.5033 36.1211 25.5153 36.0941 25.53 36.0941C25.5447 36.0941 25.5567 36.0733 25.5567 36.0479C25.5567 36.0225 25.5801 35.9735 25.6087 35.9389C25.6373 35.9044 25.6683 35.8375 25.6775 35.7903C25.6867 35.7431 25.7053 35.7044 25.7189 35.7044C25.7323 35.7044 25.7434 35.6774 25.7434 35.6444C25.7434 35.6114 25.7554 35.5845 25.7701 35.5845C25.7848 35.5845 25.7968 35.5575 25.7968 35.5245C25.7968 35.4915 25.8088 35.4645 25.8234 35.4645C25.8381 35.4645 25.8501 35.4376 25.8501 35.4046C25.8501 35.3716 25.8621 35.3446 25.8768 35.3446C25.8915 35.3446 25.9035 35.3041 25.9035 35.2547C25.9035 35.2052 25.9155 35.1647 25.9301 35.1647C25.9448 35.1647 25.9568 35.1445 25.9568 35.1198C25.9568 35.095 25.9688 35.0748 25.9835 35.0748C25.9982 35.0748 26.0102 35.0478 26.0102 35.0148C26.0102 34.9819 26.0222 34.9549 26.0368 34.9549C26.0515 34.9549 26.0635 34.9279 26.0635 34.8949C26.0635 34.8619 26.0755 34.8349 26.0902 34.8349C26.1049 34.8349 26.1169 34.7945 26.1169 34.745C26.1169 34.6955 26.1289 34.6551 26.1435 34.6551C26.1582 34.6551 26.1702 34.6281 26.1702 34.5951C26.1702 34.5621 26.1809 34.5351 26.1939 34.5351C26.2069 34.5351 26.2256 34.4744 26.2355 34.4002C26.2454 34.326 26.2648 34.2653 26.2786 34.2653C26.2923 34.2653 26.3036 34.2248 26.3036 34.1754C26.3036 34.1259 26.3156 34.0854 26.3303 34.0854C26.3449 34.0854 26.3569 34.045 26.3569 33.9955C26.3569 33.946 26.369 33.9056 26.3836 33.9056C26.3983 33.9056 26.4103 33.8718 26.4103 33.8306C26.4103 33.7894 26.4223 33.7557 26.437 33.7557C26.4516 33.7557 26.4637 33.7152 26.4637 33.6657C26.4637 33.6162 26.4757 33.5758 26.4903 33.5758C26.505 33.5758 26.517 33.5353 26.517 33.4858C26.517 33.4364 26.529 33.3959 26.5437 33.3959C26.5583 33.3959 26.5704 33.363 26.5704 33.3227C26.5704 33.2825 26.5824 33.2412 26.597 33.231C26.6117 33.2208 26.6237 33.166 26.6237 33.1093C26.6237 33.0525 26.6357 33.0061 26.6504 33.0061C26.665 33.0061 26.6771 32.9522 26.6771 32.8862C26.6771 32.8203 26.6891 32.7663 26.7037 32.7663C26.7184 32.7663 26.7304 32.7199 26.7304 32.6632C26.7304 32.6064 26.7416 32.5522 26.7553 32.5427C26.769 32.5332 26.7886 32.4177 26.7988 32.2861C26.809 32.1545 26.8278 32.0468 26.8406 32.0468C26.8533 32.0468 26.8638 31.9793 26.8638 31.8969C26.8638 31.8144 26.8758 31.747 26.8905 31.747C26.9053 31.747 26.9171 31.667 26.9171 31.5671C26.9171 31.4672 26.929 31.3872 26.9438 31.3872C26.9588 31.3872 26.9705 31.3031 26.9705 31.1948C26.9705 31.0676 26.9818 30.9982 27.0038 30.99C27.03 30.9801 27.0372 30.589 27.0372 29.1686C27.0372 27.7482 27.03 27.3571 27.0038 27.3473C26.9818 27.3391 26.9705 27.2697 26.9705 27.1425C26.9705 27.0342 26.9588 26.9501 26.9438 26.9501C26.929 26.9501 26.9171 26.8701 26.9171 26.7702C26.9171 26.6703 26.9053 26.5903 26.8905 26.5903C26.8758 26.5903 26.8638 26.5296 26.8638 26.4554C26.8638 26.3812 26.8535 26.3205 26.841 26.3205C26.8284 26.3205 26.8099 26.2092 26.7998 26.0732C26.7898 25.9371 26.7701 25.8213 26.756 25.8158C26.7419 25.8103 26.7304 25.753 26.7304 25.6884C26.7304 25.6238 26.7184 25.571 26.7037 25.571C26.6891 25.571 26.6771 25.5246 26.6771 25.4678C26.6771 25.4111 26.665 25.3563 26.6504 25.3461C26.6357 25.3359 26.6237 25.2811 26.6237 25.2244C26.6237 25.1677 26.6117 25.1213 26.597 25.1213C26.5824 25.1213 26.5704 25.0808 26.5704 25.0313C26.5704 24.9819 26.5583 24.9414 26.5437 24.9414C26.529 24.9414 26.517 24.9009 26.517 24.8514C26.517 24.802 26.505 24.7615 26.4903 24.7615C26.4757 24.7615 26.4637 24.7278 26.4637 24.6866C26.4637 24.6453 26.4516 24.6116 26.437 24.6116C26.4223 24.6116 26.4103 24.5711 26.4103 24.5217C26.4103 24.4722 26.3983 24.4317 26.3836 24.4317C26.369 24.4317 26.3569 24.3912 26.3569 24.3418C26.3569 24.2923 26.3449 24.2518 26.3303 24.2518C26.3156 24.2518 26.3036 24.2189 26.3036 24.1787C26.3036 24.1384 26.2937 24.0986 26.2816 24.0902C26.2695 24.0818 26.237 23.9865 26.2096 23.8786C26.1821 23.7706 26.15 23.6822 26.1383 23.6822C26.1265 23.6822 26.1169 23.6579 26.1169 23.6282C26.1169 23.5612 26.0572 23.4129 26.0302 23.4126C26.0192 23.4125 26.0102 23.3854 26.0102 23.3524C26.0102 23.3194 25.9982 23.2925 25.9835 23.2925C25.9688 23.2925 25.9568 23.252 25.9568 23.2025C25.9568 23.1531 25.9448 23.1126 25.9301 23.1126C25.9155 23.1126 25.9035 23.0856 25.9035 23.0526C25.9035 23.0196 25.8937 22.9927 25.8818 22.9927C25.8699 22.9927 25.8436 22.9454 25.8234 22.8877C25.8033 22.83 25.777 22.7828 25.7651 22.7828C25.7531 22.7828 25.7434 22.7558 25.7434 22.7228C25.7434 22.6899 25.7314 22.6629 25.7167 22.6629C25.7021 22.6629 25.6901 22.6431 25.6901 22.619C25.6901 22.558 25.605 22.3631 25.5784 22.3631C25.5665 22.3631 25.5567 22.3361 25.5567 22.3031C25.5567 22.2701 25.5447 22.2431 25.53 22.2431C25.5153 22.2431 25.5033 22.2229 25.5033 22.1982C25.5033 22.1734 25.4913 22.1532 25.4767 22.1532C25.462 22.1532 25.45 22.1262 25.45 22.0932C25.45 22.0603 25.438 22.0333 25.4233 22.0333C25.4086 22.0333 25.3966 22.0093 25.3966 21.9799C25.3966 21.9506 25.3726 21.9071 25.3433 21.8834C25.3139 21.8596 25.2899 21.8162 25.2899 21.7868C25.2899 21.7575 25.2779 21.7335 25.2633 21.7335C25.2486 21.7335 25.2366 21.7158 25.2366 21.6941C25.2366 21.6725 25.214 21.6276 25.1865 21.5944C25.159 21.5612 25.1281 21.5047 25.118 21.4688C25.1079 21.433 25.0884 21.4037 25.0747 21.4037C25.0611 21.4037 25.0498 21.3797 25.0498 21.3503C25.0498 21.321 25.0258 21.2776 24.9965 21.2538C24.9672 21.23 24.9431 21.1896 24.9431 21.1639C24.9431 21.1381 24.9191 21.0977 24.8898 21.0739C24.8605 21.0501 24.8364 21.0164 24.8364 20.999C24.8364 20.9815 24.8124 20.9478 24.7831 20.924C24.7538 20.9002 24.7297 20.8622 24.7297 20.8395C24.7297 20.8168 24.6937 20.7604 24.6497 20.7141C24.6057 20.6679 24.5697 20.6118 24.5697 20.5893C24.5697 20.5669 24.5397 20.5123 24.503 20.4678C24.4663 20.4233 24.4363 20.3786 24.4363 20.3683C24.4363 20.3581 24.3883 20.2979 24.3296 20.2345C24.2709 20.171 24.2229 20.105 24.2229 20.0876C24.2229 20.0702 24.1569 19.9793 24.0762 19.8857C23.9955 19.7921 23.9295 19.7038 23.9295 19.6896C23.9295 19.6753 23.4433 19.1175 22.8491 18.4501C22.2549 17.7826 21.7688 17.2243 21.7688 17.2094C21.7688 17.1947 21.6555 17.0564 21.517 16.9021C21.3785 16.748 21.2495 16.6041 21.2303 16.5825C21.211 16.5609 21.0812 16.4158 20.9418 16.2602C20.8024 16.1046 20.6799 15.9671 20.6694 15.9547C19.9723 15.1299 19.8413 15.0117 19.656 15.0404Z" fill="#F4C249"/>
</g>
<defs>
<clipPath id="clip0_1_159">
<rect width="26.6755" height="43.3115" fill="white" transform="translate(0.375 0.20752)"/>
</clipPath>
</defs>
</svg>
