<svg width="31" height="31" viewBox="0 0 31 31" fill="none" xmlns="http://www.w3.org/2000/svg">
<path fill-rule="evenodd" clip-rule="evenodd" d="M1.875 15.7363C1.875 10.3436 1.875 7.64726 3.16004 5.70516C3.73387 4.83791 4.47658 4.0952 5.34383 3.52137C7.28594 2.23633 9.98229 2.23633 15.375 2.23633C20.7677 2.23633 23.4641 2.23633 25.4062 3.52137C26.2734 4.0952 27.0161 4.83791 27.59 5.70516C28.875 7.64726 28.875 10.3436 28.875 15.7363C28.875 21.129 28.875 23.8254 27.59 25.7675C27.0161 26.6347 26.2734 27.3775 25.4062 27.9513C23.4641 29.2363 20.7677 29.2363 15.375 29.2363C9.98229 29.2363 7.28594 29.2363 5.34383 27.9513C4.47658 27.3775 3.73387 26.6347 3.16004 25.7675C1.875 23.8254 1.875 21.129 1.875 15.7363ZM22.3639 15.7367C22.3639 19.5966 19.2347 22.7258 15.3748 22.7258C11.5148 22.7258 8.38564 19.5966 8.38564 15.7367C8.38564 11.8767 11.5148 8.74756 15.3748 8.74756C19.2347 8.74756 22.3639 11.8767 22.3639 15.7367ZM15.3748 20.3612C17.9288 20.3612 19.9993 18.2907 19.9993 15.7367C19.9993 13.1826 17.9288 11.1122 15.3748 11.1122C12.8207 11.1122 10.7503 13.1826 10.7503 15.7367C10.7503 18.2907 12.8207 20.3612 15.3748 20.3612ZM22.6399 10.0387C23.5469 10.0387 24.2821 9.3034 24.2821 8.39642C24.2821 7.48943 23.5469 6.75418 22.6399 6.75418C21.7329 6.75418 20.9977 7.48943 20.9977 8.39642C20.9977 9.3034 21.7329 10.0387 22.6399 10.0387Z" fill="#F7F7FC"/>
</svg>
