<svg width="31" height="31" viewBox="0 0 31 31" fill="none" xmlns="http://www.w3.org/2000/svg">
<path d="M28.4028 9.37108C26.7752 9.37108 25.2702 8.8304 24.0662 7.92184C22.6839 6.87949 21.6861 5.34664 21.335 3.58524C21.2458 3.15047 21.2012 2.69897 21.1956 2.23633H16.5413V14.9507L16.5357 21.9126C16.5357 23.7744 15.3206 25.3518 13.6428 25.9092C13.1523 26.0709 12.6283 26.1489 12.0821 26.1155C11.3797 26.0764 10.7276 25.8646 10.1535 25.5246C8.93832 24.8 8.11894 23.4845 8.09665 21.974C8.0632 19.6217 9.96394 17.6987 12.3162 17.6987C12.7788 17.6987 13.2248 17.7767 13.6428 17.9105V14.4379V13.1949C13.2025 13.128 12.7565 13.0945 12.2995 13.0945C9.72426 13.0945 7.31628 14.1647 5.59391 16.0934C4.29516 17.5482 3.51479 19.4099 3.39217 21.3608C3.23609 23.9193 4.17253 26.3551 5.98966 28.15C6.25722 28.412 6.53592 28.6572 6.83134 28.8858C8.39207 30.0842 10.2928 30.7363 12.2995 30.7363C12.751 30.7363 13.2025 30.7029 13.6428 30.636C15.5157 30.3573 17.2436 29.4989 18.6093 28.15C20.287 26.4945 21.2123 24.2928 21.2235 21.9517L21.2012 11.5505C22.0038 12.1692 22.8734 12.6765 23.8154 13.0722C25.2758 13.691 26.8254 13.9975 28.414 13.9975V10.6197V9.36551C28.4195 9.37108 28.4028 9.37108 28.4028 9.37108Z" fill="white"/>
</svg>
