<svg width="31" height="31" viewBox="0 0 31 31" fill="none" xmlns="http://www.w3.org/2000/svg">
<path d="M1.875 5.22322C1.875 4.3574 2.17906 3.64311 2.78716 3.08036C3.39526 2.51758 4.18582 2.23621 5.15878 2.23621C6.11439 2.23621 6.88754 2.51324 7.47828 3.06737C8.08638 3.6388 8.39044 4.38337 8.39044 5.30114C8.39044 6.13231 8.09509 6.82493 7.50434 7.37906C6.89624 7.95049 6.09701 8.2362 5.10666 8.2362H5.0806C4.12499 8.2362 3.35184 7.95049 2.7611 7.37906C2.17036 6.80763 1.875 6.08901 1.875 5.22322ZM2.2138 27.9505V10.5998H7.99952V27.9505H2.2138ZM11.2051 27.9505H16.9908V18.2622C16.9908 17.6561 17.0603 17.1886 17.1993 16.8596C17.4426 16.2708 17.8118 15.773 18.307 15.3661C18.8021 14.9591 19.4233 14.7557 20.1704 14.7557C22.1163 14.7557 23.0893 16.063 23.0893 18.6778V27.9505H28.875V18.0024C28.875 15.4397 28.2669 13.4959 27.0507 12.1713C25.8345 10.8466 24.2273 10.1843 22.2292 10.1843C19.9879 10.1843 18.2418 11.1453 16.9908 13.0674V13.1193H16.9648L16.9908 13.0674V10.5998H11.2051C11.2399 11.1539 11.2572 12.8769 11.2572 15.7687C11.2572 18.6604 11.2399 22.721 11.2051 27.9505Z" fill="#F7F7FC"/>
</svg>
