<svg width="31" height="31" viewBox="0 0 31 31" fill="none" xmlns="http://www.w3.org/2000/svg">
<path d="M16.7562 25.3564L10.9091 25.2471C9.01596 25.209 7.11809 25.285 5.26205 24.8905C2.43859 24.3011 2.23856 21.4109 2.02926 18.9866C1.74086 15.5784 1.85251 12.1082 2.39675 8.72843C2.704 6.83201 3.91314 5.70039 5.78303 5.57725C12.0953 5.13036 18.4495 5.18332 24.7478 5.39181C25.4129 5.41093 26.0827 5.51539 26.7386 5.6343C29.9762 6.21426 30.0552 9.48945 30.265 12.2465C30.4743 15.0321 30.386 17.8319 29.9859 20.5985C29.665 22.8892 29.0509 24.8101 26.4594 24.9956C23.2125 25.238 20.0401 25.4333 16.7841 25.3711C16.7842 25.3564 16.7655 25.3564 16.7562 25.3564ZM13.3187 19.5571C15.7655 18.1214 18.1657 16.7097 20.5985 15.2836C18.1471 13.848 15.7515 12.4362 13.3187 11.0102V19.5571Z" fill="#F7F7FC"/>
</svg>
